<svg xmlns="http://www.w3.org/2000/svg" viewBox="0 0 174.08 126.48">
  <g>
    <path fill='#0f172a' d="M110.07,119.12c-3,0-3.18-3.29-2.3-6.7l5.7-22.83c2.75-11,5-18.88,6.59-24.59L92.4,72.79,92,74.55c7.24.33,7.24,1.32,4.83,11l-5.16,20.31c-3.84,15.48,1.32,20.64,11.75,20.64,6.69,0,14.27-5.16,20.52-17.35l-1.75-1C118.74,113.74,114,119.12,110.07,119.12Z" transform="translate(0 0)"/>
    <path fill='#0f172a' d="M113.8,37.33a11.13,11.13,0,0,0-11.19,11,11.2,11.2,0,1,0,22.39,0A11.13,11.13,0,0,0,113.8,37.33Z" transform="translate(0 0)"/>
    <path fill='#0f172a' d="M156.84,71.48h15.92L174.08,66H158.27l4.94-19.65L142.9,57.64,140.81,66h-9.33l-1.32,5.49h8.9l-8.57,34.36c-3.62,15.37,1.87,20.64,12.19,20.64,6.7,0,15-5.16,21.3-17.35l-1.76-1c-3.4,5.6-8.89,11-12.84,11-2.75,0-3.63-2.63-2.75-6.7Z" transform="translate(0 0)"/>
    <path fill='#0f172a' d="M91,44.25C98,30,95.78,12.76,77.07,3.67S43.58,3.53,36.64,17.82c-4.88,10.05-5.28,21.5,1.4,30.57-29,.26-38,20.1-38,45.21v25.49H77.32V93.6c0-12.53-2.26-23.75-8.13-31.87C79,60.24,86.61,53.34,91,44.25ZM62,100.85H15.36V93.28c0-13.44,2.88-25.59,23.25-25.59S62,79.84,62,93.28ZM78.75,38.28c-3.12,6.43-9.58,9.22-20.41,3.95S45.89,30,48.92,23.79s9.38-9.32,20.32-4S81.87,31.85,78.75,38.28Z" transform="translate(0 0)"/>
  </g>
</svg>
